<svg xmlns="http://www.w3.org/2000/svg" xmlns:xlink="http://www.w3.org/1999/xlink" width="167" zoomAndPan="magnify" viewBox="0 0 125.25 77.999999" height="104" preserveAspectRatio="xMidYMid meet" version="1.0"><defs><g/><clipPath id="6bbebaa400"><path d="M 0 0.230469 L 124.503906 0.230469 L 124.503906 77.765625 L 0 77.765625 Z M 0 0.230469 " clip-rule="nonzero"/></clipPath><clipPath id="70a473771c"><rect x="0" width="116" y="0" height="28"/></clipPath></defs><g clip-path="url(#6bbebaa400)"><path fill="#ffffff" d="M 0 0.230469 L 124.503906 0.230469 L 124.503906 77.769531 L 0 77.769531 Z M 0 0.230469 " fill-opacity="1" fill-rule="nonzero"/></g><path stroke-linecap="round" transform="matrix(1.863839, 0, 0, 1.863839, 39.92862, 0.232145)" fill="none" stroke-linejoin="round" d="M 16.999675 16.499401 L 11.999076 13.500299 " stroke="#444950" stroke-width="1.2" stroke-opacity="1" stroke-miterlimit="4"/><path stroke-linecap="round" transform="matrix(1.863839, 0, 0, 1.863839, 39.92862, 0.232145)" fill="none" stroke-linejoin="round" d="M 7.000573 16.499401 L 2.259854 13.649101 " stroke="#444950" stroke-width="1.2" stroke-opacity="1" stroke-miterlimit="4"/><path stroke-linecap="round" transform="matrix(1.863839, 0, 0, 1.863839, 39.92862, 0.232145)" fill="none" stroke-linejoin="round" d="M 11.999076 8.000898 L 7.260453 5.150598 " stroke="#00cd9e" stroke-width="1.2" stroke-opacity="1" stroke-miterlimit="4"/><path stroke-linecap="round" transform="matrix(1.863839, 0, 0, 1.863839, 39.92862, 0.232145)" fill="none" stroke-linejoin="round" d="M 11.999076 8.000898 L 16.739795 5.150598 " stroke="#00cd9e" stroke-width="1.2" stroke-opacity="1" stroke-miterlimit="4"/><path stroke-linecap="round" transform="matrix(1.863839, 0, 0, 1.863839, 39.92862, 0.232145)" fill="none" stroke-linejoin="round" d="M 11.999076 13.500299 L 11.999076 8.000898 " stroke="#00cd9e" stroke-width="1.2" stroke-opacity="1" stroke-miterlimit="4"/><path stroke-linecap="round" transform="matrix(1.863839, 0, 0, 1.863839, 39.92862, 0.232145)" fill="none" stroke-linejoin="round" d="M 7.970932 4.419161 C 7.669136 4.5994 7.43231 4.842514 7.260453 5.148502 C 7.088597 5.452395 7.000573 5.779341 7.000573 6.129341 L 7.000573 10.499101 L 11.999076 13.500299 L 16.999675 10.499101 L 16.999675 6.129341 C 16.999675 5.779341 16.911651 5.452395 16.739795 5.148502 C 16.565843 4.842514 16.331112 4.5994 16.029316 4.419161 L 13.030214 2.620957 C 12.713747 2.430239 12.370034 2.333832 11.999076 2.333832 C 11.630214 2.333832 11.286501 2.430239 10.970034 2.620957 Z M 7.970932 4.419161 " stroke="#00cd9e" stroke-width="1.2" stroke-opacity="1" stroke-miterlimit="4"/><path stroke-linecap="round" transform="matrix(1.863839, 0, 0, 1.863839, 39.92862, 0.232145)" fill="none" stroke-linejoin="round" d="M 16.999675 16.499401 L 21.740394 13.649101 " stroke="#444950" stroke-width="1.2" stroke-opacity="1" stroke-miterlimit="4"/><path stroke-linecap="round" transform="matrix(1.863839, 0, 0, 1.863839, 39.92862, 0.232145)" fill="none" stroke-linejoin="round" d="M 16.999675 16.499401 L 16.999675 21.66976 " stroke="#444950" stroke-width="1.2" stroke-opacity="1" stroke-miterlimit="4"/><path stroke-linecap="round" transform="matrix(1.863839, 0, 0, 1.863839, 39.92862, 0.232145)" fill="none" stroke-linejoin="round" d="M 7.000573 16.499401 L 7.000573 21.66976 " stroke="#444950" stroke-width="1.2" stroke-opacity="1" stroke-miterlimit="4"/><path stroke-linecap="round" transform="matrix(1.863839, 0, 0, 1.863839, 39.92862, 0.232145)" fill="none" stroke-linejoin="round" d="M 7.000573 16.499401 L 11.999076 13.500299 " stroke="#444950" stroke-width="1.2" stroke-opacity="1" stroke-miterlimit="4"/><path stroke-linecap="round" transform="matrix(1.863839, 0, 0, 1.863839, 39.92862, 0.232145)" fill="none" stroke-linejoin="round" d="M 2.970333 12.91976 C 2.670633 13.1 2.433807 13.343113 2.259854 13.647006 C 2.087998 13.952994 1.999974 14.27994 1.999974 14.62994 L 1.999974 17.87006 C 1.999974 18.22006 2.087998 18.547006 2.259854 18.852994 C 2.433807 19.156886 2.670633 19.4 2.970333 19.580239 L 5.969435 21.380539 C 6.285902 21.571257 6.629615 21.665569 7.000573 21.665569 C 7.369435 21.665569 7.713148 21.571257 8.029615 21.380539 L 11.999076 18.9997 L 11.999076 13.500299 L 7.000573 10.499101 Z M 2.970333 12.91976 " stroke="#444950" stroke-width="1.2" stroke-opacity="1" stroke-miterlimit="4"/><path stroke-linecap="round" transform="matrix(1.863839, 0, 0, 1.863839, 39.92862, 0.232145)" fill="none" stroke-linejoin="round" d="M 2.970333 12.91976 C 2.670633 13.1 2.433807 13.343113 2.259854 13.647006 C 2.087998 13.952994 1.999974 14.27994 1.999974 14.62994 L 1.999974 17.87006 C 1.999974 18.22006 2.087998 18.547006 2.259854 18.852994 C 2.433807 19.156886 2.670633 19.4 2.970333 19.580239 L 5.969435 21.380539 C 6.285902 21.571257 6.629615 21.665569 7.000573 21.665569 C 7.369435 21.665569 7.713148 21.571257 8.029615 21.380539 L 11.999076 18.9997 L 11.999076 13.500299 L 7.000573 10.499101 Z M 2.970333 12.91976 " stroke="#444950" stroke-width="1.2" stroke-opacity="1" stroke-miterlimit="4"/><path stroke-linecap="round" transform="matrix(1.863839, 0, 0, 1.863839, 39.92862, 0.232145)" fill="none" stroke-linejoin="round" d="M 11.999076 13.500299 L 11.999076 18.9997 L 15.970633 21.380539 C 16.2871 21.571257 16.630813 21.665569 16.999675 21.665569 C 17.370633 21.665569 17.71225 21.571257 18.030813 21.380539 L 21.029915 19.580239 C 21.329616 19.4 21.566442 19.156886 21.740394 18.852994 C 21.91225 18.547006 22.000274 18.22006 22.000274 17.87006 L 22.000274 14.62994 C 22.000274 14.27994 21.91225 13.952994 21.740394 13.647006 C 21.566442 13.343113 21.329616 13.1 21.029915 12.91976 L 16.999675 10.499101 Z M 11.999076 13.500299 " stroke="#444950" stroke-width="1.2" stroke-opacity="1" stroke-miterlimit="4"/><g transform="matrix(1, 0, 0, 1, 4, 46)"><g clip-path="url(#70a473771c)"><g fill="#111827" fill-opacity="1"><g transform="translate(0.615952, 21.347666)"><g><path d="M 8.140625 0.25 C 6.703125 0.25 5.441406 -0.0625 4.359375 -0.6875 C 3.285156 -1.320312 2.441406 -2.195312 1.828125 -3.3125 C 1.222656 -4.4375 0.921875 -5.734375 0.921875 -7.203125 C 0.921875 -8.660156 1.222656 -9.945312 1.828125 -11.0625 C 2.441406 -12.1875 3.285156 -13.0625 4.359375 -13.6875 C 5.441406 -14.320312 6.703125 -14.640625 8.140625 -14.640625 C 9.566406 -14.640625 10.820312 -14.320312 11.90625 -13.6875 C 12.988281 -13.0625 13.832031 -12.1875 14.4375 -11.0625 C 15.039062 -9.945312 15.34375 -8.660156 15.34375 -7.203125 C 15.34375 -5.828125 15.070312 -4.597656 14.53125 -3.515625 C 14 -2.441406 13.257812 -1.59375 12.3125 -0.96875 L 15.640625 2.609375 L 12.375 2.609375 L 10.109375 0.015625 C 9.484375 0.171875 8.828125 0.25 8.140625 0.25 Z M 8.140625 -2.125 C 9.515625 -2.125 10.609375 -2.570312 11.421875 -3.46875 C 12.234375 -4.375 12.640625 -5.617188 12.640625 -7.203125 C 12.640625 -8.773438 12.234375 -10.015625 11.421875 -10.921875 C 10.609375 -11.828125 9.515625 -12.28125 8.140625 -12.28125 C 6.773438 -12.28125 5.679688 -11.828125 4.859375 -10.921875 C 4.035156 -10.015625 3.625 -8.773438 3.625 -7.203125 C 3.625 -5.617188 4.035156 -4.375 4.859375 -3.46875 C 5.679688 -2.570312 6.773438 -2.125 8.140625 -2.125 Z M 8.140625 -2.125 "/></g></g></g><g fill="#111827" fill-opacity="1"><g transform="translate(16.816445, 21.347666)"><g><path d="M 5.15625 0.25 C 3.882812 0.25 2.898438 -0.144531 2.203125 -0.9375 C 1.515625 -1.738281 1.171875 -2.90625 1.171875 -4.4375 L 1.171875 -10.203125 L 3.78125 -10.203125 L 3.78125 -4.6875 C 3.78125 -3.8125 3.957031 -3.140625 4.3125 -2.671875 C 4.675781 -2.203125 5.238281 -1.96875 6 -1.96875 C 6.726562 -1.96875 7.328125 -2.226562 7.796875 -2.75 C 8.273438 -3.269531 8.515625 -4 8.515625 -4.9375 L 8.515625 -10.203125 L 11.140625 -10.203125 L 11.140625 0 L 8.828125 0 L 8.609375 -1.734375 C 8.296875 -1.128906 7.84375 -0.644531 7.25 -0.28125 C 6.65625 0.0703125 5.957031 0.25 5.15625 0.25 Z M 5.15625 0.25 "/></g></g></g><g fill="#111827" fill-opacity="1"><g transform="translate(29.31632, 21.347666)"><g><path d="M 2.75 -11.78125 C 2.269531 -11.78125 1.875 -11.921875 1.5625 -12.203125 C 1.257812 -12.492188 1.109375 -12.859375 1.109375 -13.296875 C 1.109375 -13.742188 1.257812 -14.109375 1.5625 -14.390625 C 1.875 -14.671875 2.269531 -14.8125 2.75 -14.8125 C 3.226562 -14.8125 3.625 -14.671875 3.9375 -14.390625 C 4.25 -14.109375 4.40625 -13.742188 4.40625 -13.296875 C 4.40625 -12.859375 4.25 -12.492188 3.9375 -12.203125 C 3.625 -11.921875 3.226562 -11.78125 2.75 -11.78125 Z M 1.4375 0 L 1.4375 -10.203125 L 4.078125 -10.203125 L 4.078125 0 Z M 1.4375 0 "/></g></g></g><g fill="#111827" fill-opacity="1"><g transform="translate(34.805574, 21.347666)"><g><path d="M 6.328125 0.25 C 5.285156 0.25 4.367188 0.0234375 3.578125 -0.421875 C 2.785156 -0.878906 2.15625 -1.507812 1.6875 -2.3125 C 1.226562 -3.125 1 -4.050781 1 -5.09375 C 1 -6.132812 1.226562 -7.0625 1.6875 -7.875 C 2.15625 -8.6875 2.785156 -9.316406 3.578125 -9.765625 C 4.367188 -10.222656 5.285156 -10.453125 6.328125 -10.453125 C 7.628906 -10.453125 8.722656 -10.109375 9.609375 -9.421875 C 10.503906 -8.742188 11.078125 -7.8125 11.328125 -6.625 L 8.546875 -6.625 C 8.410156 -7.113281 8.140625 -7.5 7.734375 -7.78125 C 7.335938 -8.0625 6.863281 -8.203125 6.3125 -8.203125 C 5.582031 -8.203125 4.960938 -7.925781 4.453125 -7.375 C 3.953125 -6.832031 3.703125 -6.070312 3.703125 -5.09375 C 3.703125 -4.125 3.953125 -3.363281 4.453125 -2.8125 C 4.960938 -2.269531 5.582031 -2 6.3125 -2 C 6.863281 -2 7.335938 -2.132812 7.734375 -2.40625 C 8.140625 -2.675781 8.410156 -3.066406 8.546875 -3.578125 L 11.328125 -3.578125 C 11.078125 -2.421875 10.503906 -1.492188 9.609375 -0.796875 C 8.722656 -0.0976562 7.628906 0.25 6.328125 0.25 Z M 6.328125 0.25 "/></g></g></g><g fill="#111827" fill-opacity="1"><g transform="translate(47.140977, 21.347666)"><g><path d="M 1.34375 0 L 1.34375 -14.8125 L 3.96875 -14.8125 L 3.96875 -6.0625 L 7.59375 -10.203125 L 10.71875 -10.203125 L 6.53125 -5.546875 L 11.390625 0 L 8.109375 0 L 3.96875 -5.125 L 3.96875 0 Z M 1.34375 0 "/></g></g></g><g fill="#111827" fill-opacity="1"><g transform="translate(58.818492, 21.347666)"><g><path d="M 6.3125 0.25 C 5.257812 0.25 4.328125 0.0664062 3.515625 -0.296875 C 2.703125 -0.660156 2.0625 -1.179688 1.59375 -1.859375 C 1.132812 -2.535156 0.898438 -3.363281 0.890625 -4.34375 L 3.65625 -4.34375 C 3.6875 -3.664062 3.929688 -3.097656 4.390625 -2.640625 C 4.847656 -2.179688 5.484375 -1.953125 6.296875 -1.953125 C 6.992188 -1.953125 7.546875 -2.117188 7.953125 -2.453125 C 8.367188 -2.796875 8.578125 -3.242188 8.578125 -3.796875 C 8.578125 -4.390625 8.394531 -4.847656 8.03125 -5.171875 C 7.664062 -5.503906 7.179688 -5.773438 6.578125 -5.984375 C 5.972656 -6.191406 5.328125 -6.410156 4.640625 -6.640625 C 3.535156 -7.023438 2.691406 -7.519531 2.109375 -8.125 C 1.523438 -8.726562 1.234375 -9.53125 1.234375 -10.53125 C 1.222656 -11.375 1.425781 -12.101562 1.84375 -12.71875 C 2.257812 -13.332031 2.828125 -13.804688 3.546875 -14.140625 C 4.273438 -14.472656 5.113281 -14.640625 6.0625 -14.640625 C 7.019531 -14.640625 7.863281 -14.46875 8.59375 -14.125 C 9.332031 -13.78125 9.910156 -13.300781 10.328125 -12.6875 C 10.742188 -12.070312 10.96875 -11.335938 11 -10.484375 L 8.1875 -10.484375 C 8.164062 -10.992188 7.96875 -11.441406 7.59375 -11.828125 C 7.21875 -12.222656 6.695312 -12.421875 6.03125 -12.421875 C 5.445312 -12.429688 4.957031 -12.289062 4.5625 -12 C 4.175781 -11.707031 3.984375 -11.28125 3.984375 -10.71875 C 3.984375 -10.238281 4.132812 -9.859375 4.4375 -9.578125 C 4.738281 -9.296875 5.148438 -9.054688 5.671875 -8.859375 C 6.191406 -8.671875 6.789062 -8.46875 7.46875 -8.25 C 8.175781 -8 8.820312 -7.707031 9.40625 -7.375 C 10 -7.050781 10.472656 -6.617188 10.828125 -6.078125 C 11.191406 -5.535156 11.375 -4.835938 11.375 -3.984375 C 11.375 -3.234375 11.179688 -2.535156 10.796875 -1.890625 C 10.410156 -1.242188 9.835938 -0.722656 9.078125 -0.328125 C 8.328125 0.0546875 7.40625 0.25 6.3125 0.25 Z M 6.3125 0.25 "/></g></g></g><g fill="#111827" fill-opacity="1"><g transform="translate(71.092217, 21.347666)"><g><path d="M 5.875 0 C 4.8125 0 3.957031 -0.257812 3.3125 -0.78125 C 2.664062 -1.300781 2.34375 -2.226562 2.34375 -3.5625 L 2.34375 -8 L 0.59375 -8 L 0.59375 -10.203125 L 2.34375 -10.203125 L 2.65625 -12.9375 L 4.96875 -12.9375 L 4.96875 -10.203125 L 7.734375 -10.203125 L 7.734375 -8 L 4.96875 -8 L 4.96875 -3.53125 C 4.96875 -3.039062 5.070312 -2.703125 5.28125 -2.515625 C 5.5 -2.328125 5.867188 -2.234375 6.390625 -2.234375 L 7.671875 -2.234375 L 7.671875 0 Z M 5.875 0 "/></g></g></g><g fill="#111827" fill-opacity="1"><g transform="translate(79.747561, 21.347666)"><g><path d="M 4.859375 0.25 C 3.972656 0.25 3.25 0.109375 2.6875 -0.171875 C 2.125 -0.453125 1.707031 -0.828125 1.4375 -1.296875 C 1.164062 -1.765625 1.03125 -2.28125 1.03125 -2.84375 C 1.03125 -3.78125 1.398438 -4.546875 2.140625 -5.140625 C 2.878906 -5.734375 3.988281 -6.03125 5.46875 -6.03125 L 8.0625 -6.03125 L 8.0625 -6.265625 C 8.0625 -6.960938 7.863281 -7.476562 7.46875 -7.8125 C 7.070312 -8.144531 6.578125 -8.3125 5.984375 -8.3125 C 5.453125 -8.3125 4.984375 -8.179688 4.578125 -7.921875 C 4.179688 -7.671875 3.9375 -7.300781 3.84375 -6.8125 L 1.28125 -6.8125 C 1.34375 -7.550781 1.585938 -8.191406 2.015625 -8.734375 C 2.453125 -9.285156 3.015625 -9.707031 3.703125 -10 C 4.390625 -10.300781 5.15625 -10.453125 6 -10.453125 C 7.457031 -10.453125 8.601562 -10.085938 9.4375 -9.359375 C 10.269531 -8.628906 10.6875 -7.597656 10.6875 -6.265625 L 10.6875 0 L 8.453125 0 L 8.203125 -1.640625 C 7.898438 -1.097656 7.476562 -0.644531 6.9375 -0.28125 C 6.394531 0.0703125 5.703125 0.25 4.859375 0.25 Z M 5.453125 -1.8125 C 6.203125 -1.8125 6.785156 -2.054688 7.203125 -2.546875 C 7.617188 -3.046875 7.882812 -3.65625 8 -4.375 L 5.75 -4.375 C 5.050781 -4.375 4.550781 -4.25 4.25 -4 C 3.945312 -3.75 3.796875 -3.4375 3.796875 -3.0625 C 3.796875 -2.664062 3.945312 -2.359375 4.25 -2.140625 C 4.550781 -1.921875 4.953125 -1.8125 5.453125 -1.8125 Z M 5.453125 -1.8125 "/></g></g></g><g fill="#111827" fill-opacity="1"><g transform="translate(91.610106, 21.347666)"><g><path d="M 6.328125 0.25 C 5.285156 0.25 4.367188 0.0234375 3.578125 -0.421875 C 2.785156 -0.878906 2.15625 -1.507812 1.6875 -2.3125 C 1.226562 -3.125 1 -4.050781 1 -5.09375 C 1 -6.132812 1.226562 -7.0625 1.6875 -7.875 C 2.15625 -8.6875 2.785156 -9.316406 3.578125 -9.765625 C 4.367188 -10.222656 5.285156 -10.453125 6.328125 -10.453125 C 7.628906 -10.453125 8.722656 -10.109375 9.609375 -9.421875 C 10.503906 -8.742188 11.078125 -7.8125 11.328125 -6.625 L 8.546875 -6.625 C 8.410156 -7.113281 8.140625 -7.5 7.734375 -7.78125 C 7.335938 -8.0625 6.863281 -8.203125 6.3125 -8.203125 C 5.582031 -8.203125 4.960938 -7.925781 4.453125 -7.375 C 3.953125 -6.832031 3.703125 -6.070312 3.703125 -5.09375 C 3.703125 -4.125 3.953125 -3.363281 4.453125 -2.8125 C 4.960938 -2.269531 5.582031 -2 6.3125 -2 C 6.863281 -2 7.335938 -2.132812 7.734375 -2.40625 C 8.140625 -2.675781 8.410156 -3.066406 8.546875 -3.578125 L 11.328125 -3.578125 C 11.078125 -2.421875 10.503906 -1.492188 9.609375 -0.796875 C 8.722656 -0.0976562 7.628906 0.25 6.328125 0.25 Z M 6.328125 0.25 "/></g></g></g><g fill="#111827" fill-opacity="1"><g transform="translate(103.94551, 21.347666)"><g><path d="M 1.34375 0 L 1.34375 -14.8125 L 3.96875 -14.8125 L 3.96875 -6.0625 L 7.59375 -10.203125 L 10.71875 -10.203125 L 6.53125 -5.546875 L 11.390625 0 L 8.109375 0 L 3.96875 -5.125 L 3.96875 0 Z M 1.34375 0 "/></g></g></g></g></g></svg>